<svg width="256" height="249" viewBox="0 0 256 249" fill="none" xmlns="http://www.w3.org/2000/svg">
<path d="M82.085 244.934C76.139 244.934 70.524 242.292 66.725 237.502L8.91998 165.657C5.12098 160.867 3.63498 154.757 5.12098 148.81L25.766 59.128C27.087 53.182 31.051 48.392 36.502 45.75L120.073 5.78001C122.716 4.46001 125.689 3.79901 128.662 3.79901C131.635 3.79901 134.607 4.45901 137.25 5.78101L220.822 45.585C226.272 48.227 230.236 53.017 231.557 58.963L252.202 148.645C253.524 154.591 252.202 160.702 248.404 165.492L190.597 237.337C186.798 241.961 181.183 244.769 175.237 244.769L82.087 244.934H82.085Z" fill="#326DE6"/>
<path d="M128.495 7.92798C130.808 7.92798 133.12 8.42298 135.267 9.41398L218.839 49.218C223.133 51.365 226.436 55.329 227.427 59.954L248.072 149.636C249.228 154.426 248.072 159.381 244.934 163.179L187.128 235.025C184.155 238.823 179.53 240.97 174.741 240.97H82.085C77.295 240.97 72.671 238.823 69.698 235.025L11.892 163.179C8.91896 159.381 7.76196 154.426 8.75396 149.636L29.399 59.954C30.555 55.164 33.693 51.2 37.987 49.218L121.56 9.24998C123.707 8.42398 126.184 7.92898 128.496 7.92898L128.495 7.92798ZM128.495 0.164978C125.027 0.164978 121.559 0.990978 118.255 2.47698L34.684 42.447C28.077 45.585 23.453 51.365 21.801 58.467L1.15596 148.15C-0.495036 155.252 1.15596 162.519 5.78096 168.3L63.587 240.145C68.047 245.76 74.818 248.898 81.92 248.898H174.575C181.677 248.898 188.449 245.76 192.908 240.145L250.715 168.299C255.339 162.684 256.991 155.252 255.339 148.149L234.694 58.467C233.043 51.365 228.418 45.585 221.812 42.447L138.57 2.47598C135.432 0.990978 131.964 0.164978 128.495 0.164978V0.164978Z" fill="white"/>
<path d="M212.232 142.534C212.067 142.534 212.067 142.534 212.232 142.534H212.067C211.902 142.534 211.737 142.534 211.737 142.369C211.407 142.369 211.077 142.204 210.746 142.204C209.59 142.039 208.599 141.874 207.608 141.874C207.112 141.874 206.617 141.874 205.956 141.708H205.791C202.323 141.378 199.515 141.048 196.872 140.222C195.716 139.726 195.386 139.066 195.055 138.405C195.055 138.24 194.89 138.24 194.89 138.075L192.743 137.415C193.757 129.645 193.366 121.757 191.587 114.126C189.784 106.432 186.654 99.1103 182.338 92.49L183.99 91.004V90.674C183.99 89.848 184.155 89.022 184.815 88.196C186.797 86.379 189.275 84.893 192.248 83.076C192.743 82.746 193.238 82.581 193.734 82.25C194.725 81.755 195.551 81.26 196.542 80.599C196.707 80.434 197.037 80.269 197.368 79.939C197.533 79.773 197.698 79.773 197.698 79.608C200.01 77.626 200.506 74.323 198.854 72.175C198.028 71.019 196.542 70.359 195.055 70.359C193.735 70.359 192.578 70.854 191.422 71.68L191.092 72.01C190.762 72.175 190.596 72.506 190.266 72.671C189.44 73.497 188.779 74.157 188.119 74.983C187.789 75.313 187.459 75.809 186.963 76.139C184.65 78.617 182.503 80.599 180.356 82.085C179.861 82.415 179.366 82.581 178.87 82.581C178.54 82.581 178.209 82.581 177.879 82.415H177.549L175.566 83.737C173.419 81.425 171.107 79.443 168.795 77.461C158.839 69.6791 146.858 64.9208 134.276 63.752L134.111 61.605L133.781 61.275C133.285 60.779 132.625 60.284 132.459 59.128C132.294 56.485 132.625 53.512 132.955 50.209V50.044C132.955 49.548 133.12 48.888 133.285 48.392C133.45 47.402 133.615 46.41 133.781 45.254V43.768C133.781 40.795 131.468 38.318 128.661 38.318C127.339 38.318 126.018 38.978 125.027 39.969C124.037 40.96 123.541 42.281 123.541 43.768V45.089C123.541 46.245 123.706 47.236 124.036 48.227C124.201 48.723 124.201 49.218 124.366 49.879V50.044C124.696 53.347 125.192 56.32 124.862 58.963C124.697 60.119 124.036 60.614 123.541 61.11L123.211 61.44L123.045 63.587C120.072 63.917 117.099 64.247 114.126 64.908C101.409 67.716 90.178 74.158 81.425 83.406L79.773 82.25H79.443C79.113 82.25 78.782 82.415 78.452 82.415C77.956 82.415 77.461 82.25 76.965 81.92C74.818 80.434 72.671 78.286 70.359 75.809C70.029 75.479 69.699 74.983 69.203 74.653C68.542 73.827 67.881 73.166 67.055 72.341C66.89 72.175 66.56 72.011 66.23 71.68C66.065 71.515 65.9 71.515 65.9 71.35C64.8767 70.5046 63.5933 70.0377 62.266 70.028C60.779 70.028 59.293 70.689 58.467 71.845C56.815 73.992 57.311 77.295 59.623 79.277C59.788 79.277 59.788 79.443 59.953 79.443C60.283 79.608 60.449 79.938 60.779 80.103C61.77 80.763 62.596 81.259 63.587 81.755C64.083 81.92 64.578 82.25 65.074 82.581C68.046 84.397 70.524 85.884 72.506 87.701C73.332 88.526 73.332 89.352 73.332 90.178V90.508L74.983 91.995C74.653 92.49 74.323 92.821 74.157 93.316C65.899 106.364 62.761 121.724 64.908 136.919L62.761 137.579C62.761 137.745 62.596 137.745 62.596 137.909C62.266 138.57 61.77 139.231 60.779 139.726C58.302 140.552 55.329 140.883 51.861 141.213H51.695C51.2 141.213 50.539 141.213 50.044 141.378C49.053 141.378 48.062 141.543 46.906 141.708C46.576 141.708 46.246 141.874 45.915 141.874C45.75 141.874 45.585 141.874 45.419 142.039C42.446 142.699 40.629 145.507 41.125 148.149C41.621 150.462 43.768 151.949 46.41 151.949C46.906 151.949 47.236 151.949 47.732 151.783C47.897 151.783 48.062 151.783 48.062 151.618C48.392 151.618 48.722 151.453 49.052 151.453C50.209 151.123 51.035 150.793 52.026 150.297C52.521 150.132 53.016 149.801 53.512 149.637H53.677C56.815 148.48 59.623 147.489 62.266 147.159H62.596C63.587 147.159 64.248 147.654 64.743 147.985C64.908 147.985 64.908 148.15 65.073 148.15L67.386 147.82C71.35 160.041 78.947 170.942 89.022 178.87C91.334 180.686 93.646 182.173 96.124 183.66L95.133 185.806C95.133 185.972 95.298 185.972 95.298 186.136C95.628 186.797 95.958 187.623 95.628 188.779C94.638 191.257 93.151 193.734 91.334 196.542V196.707C91.004 197.203 90.674 197.533 90.344 198.028C89.683 198.854 89.187 199.68 88.526 200.671C88.361 200.836 88.196 201.166 88.031 201.497C88.031 201.662 87.866 201.827 87.866 201.827C86.545 204.635 87.536 207.773 90.013 208.929C90.673 209.259 91.334 209.425 91.995 209.425C93.977 209.425 95.959 208.103 96.95 206.286C96.95 206.121 97.115 205.956 97.115 205.956C97.28 205.626 97.445 205.296 97.61 205.13C98.106 203.974 98.271 203.148 98.601 202.157L99.097 200.671C100.253 197.368 101.079 194.725 102.565 192.413C103.225 191.422 104.052 191.257 104.712 190.926C104.877 190.926 104.877 190.926 105.042 190.761L106.199 188.614C113.466 191.422 121.394 192.908 129.321 192.908C134.111 192.908 139.066 192.413 143.691 191.257C146.601 190.606 149.469 189.779 152.279 188.779L153.269 190.596C153.435 190.596 153.435 190.596 153.6 190.761C154.426 190.926 155.086 191.257 155.747 192.248C157.068 194.56 158.059 197.368 159.215 200.506V200.671L159.711 202.157C160.041 203.148 160.206 204.139 160.701 205.13C160.867 205.46 161.032 205.626 161.197 205.956C161.197 206.121 161.363 206.286 161.363 206.286C162.353 208.268 164.335 209.425 166.317 209.425C166.978 209.425 167.639 209.259 168.299 208.929C169.455 208.269 170.446 207.277 170.777 205.956C171.107 204.635 171.107 203.148 170.447 201.827C170.447 201.662 170.281 201.662 170.281 201.497C170.116 201.167 169.951 200.837 169.786 200.671C169.29 199.68 168.63 198.854 167.969 198.028C167.639 197.533 167.309 197.203 166.979 196.708V196.542C165.161 193.734 163.509 191.257 162.684 188.779C162.354 187.623 162.684 186.963 162.849 186.137C162.849 185.972 163.014 185.972 163.014 185.807L162.188 183.825C170.942 178.705 178.374 171.437 183.99 162.519C186.963 157.894 189.275 152.774 190.926 147.654L192.908 147.984C193.074 147.984 193.074 147.819 193.238 147.819C193.899 147.489 194.395 146.994 195.386 146.994H195.716C198.359 147.324 201.166 148.314 204.305 149.471H204.47C204.965 149.636 205.46 149.966 205.956 150.131C206.947 150.627 207.773 150.957 208.929 151.288C209.259 151.288 209.589 151.453 209.92 151.453C210.085 151.453 210.25 151.453 210.415 151.618C210.911 151.783 211.241 151.783 211.737 151.783C214.214 151.783 216.361 150.132 217.022 147.985C217.022 146.003 215.205 143.36 212.232 142.535V142.534ZM135.762 134.441L128.495 137.91L121.228 134.441L119.412 126.679L124.366 120.403H132.459L137.414 126.679L135.763 134.441H135.762ZM178.87 117.265C180.151 122.726 180.542 128.359 180.026 133.945L154.756 126.679C152.444 126.019 151.123 123.706 151.618 121.394C151.783 120.733 152.114 120.072 152.609 119.577L172.594 101.574C175.401 106.199 177.548 111.484 178.87 117.264V117.265ZM164.666 91.665L143.03 107.025C141.213 108.181 138.735 107.85 137.249 106.034C136.754 105.538 136.589 104.877 136.423 104.217L134.937 77.295C146.185 78.5902 156.663 83.6551 164.666 91.665V91.665ZM116.769 78.12C118.586 77.79 120.237 77.46 122.054 77.13L120.568 103.555C120.403 105.867 118.586 107.849 116.108 107.849C115.448 107.849 114.622 107.684 114.126 107.354L92.16 91.665C98.932 84.893 107.355 80.268 116.769 78.121V78.12ZM84.232 101.573L103.886 119.08C105.703 120.567 105.868 123.374 104.382 125.191C103.886 125.851 103.226 126.347 102.4 126.513L76.8 133.945C75.809 122.714 78.286 111.318 84.232 101.573V101.573ZM79.772 146.332L106.034 141.872C108.181 141.707 110.163 143.194 110.658 145.341C110.823 146.331 110.823 147.158 110.493 147.984L100.418 172.262C91.169 166.316 83.737 157.232 79.773 146.332H79.772ZM140.057 179.199C136.258 180.025 132.459 180.52 128.495 180.52C122.715 180.52 117.099 179.53 111.815 177.878L124.862 154.26C126.183 152.773 128.33 152.113 130.147 153.104C130.918 153.576 131.591 154.193 132.129 154.92L144.846 177.878C143.36 178.373 141.708 178.704 140.056 179.199H140.057ZM172.263 156.242C168.134 162.848 162.683 168.133 156.408 172.262L146.003 147.322C145.507 145.341 146.333 143.194 148.315 142.202C148.975 141.872 149.801 141.707 150.627 141.707L177.053 146.167C176.062 149.8 174.41 153.104 172.263 156.242V156.242Z" fill="white"/>
</svg>
